<?xml version="1.0" encoding="UTF-8"?>
<svg version="1.1" xmlns="http://www.w3.org/2000/svg" width="500" height="500">
<path d="M0 0 C0.99 0 1.98 0 3 0 C3.33 0.66 3.66 1.32 4 2 C7.71599191 2.20086443 8.77208445 2.1519437 12 0 C16 5.5 16 5.5 16 10 C18.88437779 8.70700306 20.87219421 7.34058637 23 5 C26 6 26 6 27 8 C27.99 8.33 28.98 8.66 30 9 C29.67 12.3 29.34 15.6 29 19 C30.32 19.33 31.64 19.66 33 20 C34.71095231 33.74872393 34.71095231 33.74872393 32.4375 37.75 C30.39498813 42.36785293 31.27160985 46.12066357 32 51 C32 51.66 32 52.32 32 53 C32.66 53.33 33.32 53.66 34 54 C34 55.65 34 57.3 34 59 C33.34 59 32.68 59 32 59 C32.28241641 60.46015291 32.57626614 61.91809793 32.875 63.375 C33.11863281 64.59316406 33.11863281 64.59316406 33.3671875 65.8359375 C33.86658932 68.18673923 33.86658932 68.18673923 36 70 C37.14905588 74.39751462 37.51095157 77.91145101 35.5625 82.0625 C35.046875 82.701875 34.53125 83.34125 34 84 C34.66 84 35.32 84 36 84 C36.66 85.98 37.32 87.96 38 90 C41.65494175 90.73247384 41.65494175 90.73247384 45.3203125 91.41015625 C48.2250519 92.04953766 50.89987531 92.96557447 53.6875 94 C54.64011719 94.350625 55.59273437 94.70125 56.57421875 95.0625 C59 96 59 96 61 97 C61.99 96.34 62.98 95.68 64 95 C64.35179197 92.6693782 64.68330179 90.33564933 65 88 C66.4375 85.3125 66.4375 85.3125 68 83 C68.68096422 81.67391178 69.35330586 80.34313399 70 79 C72.64 79 75.28 79 78 79 C78.33 79.99 78.66 80.98 79 82 C78.01 82.495 78.01 82.495 77 83 C77.350625 83.7425 77.70125 84.485 78.0625 85.25 C79.40242416 90.60969662 78.65129732 95.56078724 78 101 C78.99 101 79.98 101 81 101 C82.5625 102.4375 82.5625 102.4375 84 104 C84.66 104.33 85.32 104.66 86 105 C86.0272415 106.41655793 86.04650467 107.83327045 86.0625 109.25 C86.07410156 110.03890625 86.08570313 110.8278125 86.09765625 111.640625 C86.00385306 113.90691002 85.63241063 115.8288895 85 118 C85.99 118.33 86.98 118.66 88 119 C88 119.66 88 120.32 88 121 C88.66 121 89.32 121 90 121 C90.97631455 125.92062532 91.1831655 130.63165953 91.1875 135.625 C91.19974609 136.37523437 91.21199219 137.12546875 91.22460938 137.8984375 C91.23533973 141.93305102 90.77028634 144.45942731 89 148 C89.07927734 149.84658203 89.07927734 149.84658203 89.16015625 151.73046875 C89.2933814 156.82721501 87.048938 160.08624097 84.4375 164.3125 C80.85058329 170.49429397 78.96600005 174.74333353 80.66015625 181.99609375 C80.82837891 182.98802734 80.82837891 182.98802734 81 184 C80.34 184.66 79.68 185.32 79 186 C78.94740114 188.01324752 78.94740114 188.01324752 79.1875 190.25 C79.32614389 195.34720174 77.47195322 197.28005012 74 201 C73.32136945 202.9959722 72.65358081 204.99568551 72 207 C70.1875 209 70.1875 209 68 211 C63.88929108 215.14253566 63.88929108 215.14253566 62.75 220.6875 C62.8325 221.780625 62.915 222.87375 63 224 C62.67 224.99 62.34 225.98 62 227 C62.05555006 228.56373428 62.14217574 230.12649884 62.25 231.6875 C62.29543368 239.51345068 58.22494062 243.87974924 53 249.3125 C50.75811486 251.48683305 48.90448258 253.05518784 46.1875 254.625 C43.68500559 255.89869832 43.68500559 255.89869832 42.75 259.125 C41 262 41 262 38.88671875 262.5390625 C37.28099509 262.67735449 35.66994878 262.76512416 34.05859375 262.796875 C31.77465945 262.80250374 31.77465945 262.80250374 30 265 C29.39391903 267.05814996 28.98825831 269.12047457 28.5625 271.22265625 C28.376875 271.80917969 28.19125 272.39570313 28 273 C27.34 273.33 26.68 273.66 26 274 C25.60061297 277.86264317 25.73169411 279.59202047 27.8984375 282.88671875 C28.71570313 283.81097656 29.53296875 284.73523438 30.375 285.6875 C37.26673996 293.59659204 37.26673996 293.59659204 37.125 300.1875 C37.10695313 301.27417969 37.08890625 302.36085938 37.0703125 303.48046875 C37.04710937 304.31191406 37.02390625 305.14335937 37 306 C36.34 306.33 35.68 306.66 35 307 C35 307.66 35 308.32 35 309 C35.99 309 36.98 309 38 309 C37.15764514 313.72801571 34.20241119 315.72425731 30.625 318.625 C29.34257229 319.69259731 28.06133658 320.76162796 26.78125 321.83203125 C26.141875 322.36393066 25.5025 322.89583008 24.84375 323.44384766 C22.20778333 325.66864262 19.66722522 327.9809367 17.125 330.3125 C11.26546742 335.67517163 5.3761711 340.95467302 -0.8125 345.9375 C-1.54082031 346.52402344 -2.26914062 347.11054688 -3.01953125 347.71484375 C-5 349 -5 349 -8 349 C-6.88873341 350.33901792 -6.88873341 350.33901792 -4.05859375 350.09765625 C-2.86363281 350.08605469 -1.66867187 350.07445312 -0.4375 350.0625 C0.76003906 350.05347656 1.95757812 350.04445313 3.19140625 350.03515625 C4.58166016 350.01775391 4.58166016 350.01775391 6 350 C5.6875 351.9375 5.6875 351.9375 5 354 C4.01 354.33 3.02 354.66 2 355 C0.99083967 356.76591887 0.99083967 356.76591887 0 359 C-2.62196604 363.24939323 -5.46447222 366.49918287 -9 370 C-11.27123702 372.37615361 -13.51152327 374.78050873 -15.75 377.1875 C-16.33910156 377.81591797 -16.92820312 378.44433594 -17.53515625 379.09179688 C-18.09589844 379.69443359 -18.65664063 380.29707031 -19.234375 380.91796875 C-19.74194336 381.46219482 -20.24951172 382.0064209 -20.77246094 382.56713867 C-22.10183176 384.00175474 -22.10183176 384.00175474 -23 386 C-23.66 386 -24.32 386 -25 386 C-25.21527344 386.52335937 -25.43054688 387.04671875 -25.65234375 387.5859375 C-27.53388164 390.95634451 -30.03374918 393.73292967 -32.5625 396.625 C-33.0989917 397.24528076 -33.6354834 397.86556152 -34.18823242 398.50463867 C-38.04748636 402.95223205 -41.99276257 407.31740606 -45.9609375 411.66796875 C-48.68043065 414.77819367 -51.15074932 418.04996006 -53.58984375 421.3828125 C-54.05519531 421.91648437 -54.52054687 422.45015625 -55 423 C-55.66 423 -56.32 423 -57 423 C-57.40798828 423.87398438 -57.40798828 423.87398438 -57.82421875 424.765625 C-59.68380886 428.29946402 -62.00843862 431.34489785 -65 434 C-67.875 434.4375 -67.875 434.4375 -70 434 C-69.979375 432.906875 -69.95875 431.81375 -69.9375 430.6875 C-69.81455548 427.05615809 -69.81455548 427.05615809 -71 424 C-71.804375 423.7525 -72.60875 423.505 -73.4375 423.25 C-76 422 -76 422 -77.3125 418.6875 C-78.39797395 412.86541245 -78.39797395 412.86541245 -78 410 C-77.02246356 408.97803008 -76.0194119 407.98020375 -75 407 C-74.27306096 405.02111039 -73.60183749 403.02045442 -73 401 C-72.67 400.34 -72.34 399.68 -72 399 C-74.52625679 396.47374321 -76.51463135 395.72506384 -80 395.5625 C-84.08493639 395.69766334 -85.17977603 397.09164403 -88 400 C-91.64180245 401.10568524 -94.96191923 401.19313131 -98.6875 400.5 C-101.10457673 398.93216644 -101.94916424 397.74686646 -103.5 395.375 C-104.67473628 393.50687929 -104.67473628 393.50687929 -106 392 C-109.00868017 391.44024555 -110.2904679 391.64523395 -113 393 C-117.54339656 390.96742785 -119.41123103 388.14203035 -122 384 C-124.63651269 380.61019797 -128.09319525 379.54797924 -132 378 C-131.814375 377.4225 -131.62875 376.845 -131.4375 376.25 C-130.95976454 373.79307475 -131.24270636 372.35602466 -132 370 C-132.556875 370.66 -133.11375 371.32 -133.6875 372 C-136 374 -136 374 -138.5 374.5625 C-141 374 -141 374 -143.25 371.8125 C-146.08154506 367.26180258 -146.08154506 367.26180258 -146 364 C-143.48754304 360.78091451 -140.78934532 358.7982393 -137.25 356.875 C-133.74123224 355.32987952 -133.74123224 355.32987952 -133 352 C-132.34 352 -131.68 352 -131 352 C-131 350.35 -131 348.7 -131 347 C-132.32 347 -133.64 347 -135 347 C-135.66 348.98 -136.32 350.96 -137 353 C-138.65 353.33 -140.3 353.66 -142 354 C-142.2475 353.4225 -142.495 352.845 -142.75 352.25 C-144.20679496 349.62776908 -145.68378742 347.90746919 -148 346 C-149.32 346 -150.64 346 -152 346 C-151.43628586 342.73045798 -150.50037734 341.17424117 -148 339 C-148.66 338.34 -149.32 337.68 -150 337 C-149.76908757 335.05373807 -149.52996157 333.10754529 -149.22265625 331.171875 C-148.90085201 328.03287222 -149.49429492 325.09744362 -150 322 C-149.67 321.67 -149.34 321.34 -149 321 C-148.44804193 315.25963606 -149.44293798 313.33516934 -153 309 C-153.31033868 305.83454549 -153.42662219 303.85324437 -152 301 C-147.72656908 300.63370592 -145.51187196 301.59185923 -142 304 C-142 303.34 -142 302.68 -142 302 C-140.68 302.33 -139.36 302.66 -138 303 C-136.68 308.28 -135.36 313.56 -134 319 C-133.34 318.01 -132.68 317.02 -132 316 C-129.5625 315.1875 -129.5625 315.1875 -127 315 C-126.01 315.66 -125.02 316.32 -124 317 C-122.34450469 317.38499891 -120.6777567 317.72793135 -119 318 C-119.33 319.32 -119.66 320.64 -120 322 C-121.98 322 -123.96 322 -126 322 C-126.71744997 325.53652109 -126.91492579 328.48688716 -126 332 C-123.46383283 334.33256562 -120.75933283 336.01048225 -117.84765625 337.84765625 C-113.32287889 341.26761829 -111.07528214 345.79865996 -109 351 C-109 351.66 -109 352.32 -109 353 C-108.071875 353.37125 -108.071875 353.37125 -107.125 353.75 C-104.64931313 355.20628639 -104.04874998 356.37812506 -103 359 C-99.44219804 358.39009109 -96.3171411 357.4216319 -93 356 C-93 357.98 -93 359.96 -93 362 C-92.34 362 -91.68 362 -91 362 C-91 362.66 -91 363.32 -91 364 C-89.700625 364.12375 -88.40125 364.2475 -87.0625 364.375 C-84.84765625 364.5859375 -84.84765625 364.5859375 -83 365 C-82.67 365.66 -82.34 366.32 -82 367 C-79.6859378 367.73075648 -77.35171131 368.40138258 -75 369 C-72.70366176 365.55549263 -72.45983515 363.06187717 -72 359 C-70.0625 359.375 -70.0625 359.375 -68 360 C-66.39274365 363.21451269 -66.94251815 366.43612536 -67 370 C-63.87802522 368.6910428 -63.87802522 368.6910428 -62 366 C-61.34 366 -60.68 366 -60 366 C-60.495 364.515 -60.495 364.515 -61 363 C-61.09499949 360.94442611 -61.13072672 358.88589189 -61.1328125 356.828125 C-61.13410156 355.60609375 -61.13539063 354.3840625 -61.13671875 353.125 C-61.13285156 351.84625 -61.12898438 350.5675 -61.125 349.25 C-61.12886719 347.98671875 -61.13273437 346.7234375 -61.13671875 345.421875 C-61.13542969 344.1946875 -61.13414062 342.9675 -61.1328125 341.703125 C-61.13168457 340.58583008 -61.13055664 339.46853516 -61.12939453 338.31738281 C-60.99302609 334.82120473 -60.55107543 331.45311414 -60 328 C-59.34 328 -58.68 328 -58 328 C-58 327.34 -58 326.68 -58 326 C-57.34 326 -56.68 326 -56 326 C-56 325.34 -56 324.68 -56 324 C-55.01 324 -54.02 324 -53 324 C-53.33 323.46375 -53.66 322.9275 -54 322.375 C-55 320 -55 320 -54.9375 317.0625 C-54.74725263 313.95195832 -54.74725263 313.95195832 -56.5 311.5 C-58.33210034 308.44649943 -58 306.49631933 -58 303 C-59.43750191 301.31201173 -59.43750191 301.31201173 -61 300 C-61 299.01 -61 298.02 -61 297 C-59.02 297.33 -57.04 297.66 -55 298 C-54.82940496 294.27810546 -54.82940496 294.27810546 -55.5625 291.875 C-56.22433074 287.52582657 -55.54815041 283.34303784 -55 279 C-54.34 279 -53.68 279 -53 279 C-50.31729929 272.08627788 -50.31729929 272.08627788 -51 265 C-51.66 265 -52.32 265 -53 265 C-53 263.68 -53 262.36 -53 261 C-53.94875 261.28875 -54.8975 261.5775 -55.875 261.875 C-60.52679391 263.21227135 -65.2486276 264.0887779 -70 265 C-70 268.3 -70 271.6 -70 275 C-76.26721763 275.48209366 -76.26721763 275.48209366 -79.375 273.4375 C-81.4523486 270.3214771 -81.71574109 267.69536586 -82 264 C-81.01 263.67 -80.02 263.34 -79 263 C-77.73387432 255.56151161 -77.47505269 248.43411812 -79 241 C-79.70125 241.495 -80.4025 241.99 -81.125 242.5 C-84.37119719 244.1936681 -86.39340156 244.25162315 -90 244 C-90.495 241.525 -90.495 241.525 -91 239 C-91.94875 238.7525 -92.8975 238.505 -93.875 238.25 C-97 237 -97 237 -98.4375 235.375 C-99.29690052 231.74642005 -98.61127997 228.6676798 -98 225 C-95.525 224.01 -95.525 224.01 -93 223 C-92 224 -92 224 -91.9375 226.5625 C-91.958125 227.366875 -91.97875 228.17125 -92 229 C-91.01 229 -90.02 229 -89 229 C-88.67 229.99 -88.34 230.98 -88 232 C-87.01 231.01 -86.02 230.02 -85 229 C-85.33 228.01 -85.66 227.02 -86 226 C-86.66 226 -87.32 226 -88 226 C-88.495 222.535 -88.495 222.535 -89 219 C-88.07767578 218.90525391 -88.07767578 218.90525391 -87.13671875 218.80859375 C-82.31326161 218.23458689 -82.31326161 218.23458689 -78.734375 215.30859375 C-77.80834447 213.17108649 -77.80834447 213.17108649 -77 210 C-75.02 210 -73.04 210 -71 210 C-71 209.01 -71 208.02 -71 207 C-66.05 206.01 -66.05 206.01 -61 205 C-59.25204084 198.68792524 -58.84862448 195.32757507 -61 189 C-60.67 188.01 -60.34 187.02 -60 186 C-59.34 186 -58.68 186 -58 186 C-58 185.34 -58 184.68 -58 184 C-57.34 184 -56.68 184 -56 184 C-53.99723891 177.76918772 -53.79248078 174.20207781 -56 168 C-57.35444301 166.22809091 -57.35444301 166.22809091 -59 165 C-62 161.33333333 -62 161.33333333 -62 159 C-61.01 159 -60.02 159 -59 159 C-59 158.34 -59 157.68 -59 157 C-58.319375 156.443125 -57.63875 155.88625 -56.9375 155.3125 C-54.56427496 153.02156088 -54.56427496 153.02156088 -55.25 149.25 C-55.4975 148.1775 -55.745 147.105 -56 146 C-57.65 145.34 -59.3 144.68 -61 144 C-61 143.34 -61 142.68 -61 142 C-60.34 141.67 -59.68 141.34 -59 141 C-57.13622176 135.82283822 -56.84789502 131.37648991 -58 126 C-57.505 124.515 -57.505 124.515 -57 123 C-57.98287008 120.99152635 -58.98377342 118.99180409 -60 117 C-60 115.68 -60 114.36 -60 113 C-58.68 112.67 -57.36 112.34 -56 112 C-56.33 111.34 -56.66 110.68 -57 110 C-58.485 109.505 -58.485 109.505 -60 109 C-60 109.66 -60 110.32 -60 111 C-61.98 110.505 -61.98 110.505 -64 110 C-64 108.68 -64 107.36 -64 106 C-63.32453125 105.86722656 -62.6490625 105.73445313 -61.953125 105.59765625 C-60.61507812 105.33275391 -60.61507812 105.33275391 -59.25 105.0625 C-58.36828125 104.88847656 -57.4865625 104.71445313 -56.578125 104.53515625 C-54.36764947 104.07631512 -52.18487932 103.56663926 -50 103 C-49.81824219 101.60974609 -49.81824219 101.60974609 -49.6328125 100.19140625 C-49.46523438 98.99386719 -49.29765625 97.79632813 -49.125 96.5625 C-48.96257812 95.36753906 -48.80015625 94.17257813 -48.6328125 92.94140625 C-48.42398438 91.97074219 -48.21515625 91.00007813 -48 90 C-47.34 89.67 -46.68 89.34 -46 89 C-45.74969023 86.58380177 -45.74969023 86.58380177 -46 84 C-47.485 83.01 -47.485 83.01 -49 82 C-49 81.01 -49 80.02 -49 79 C-46.69 79 -44.38 79 -42 79 C-42.33 77.35 -42.66 75.7 -43 74 C-41.37247769 74.25523874 -39.74796804 74.52974494 -38.125 74.8125 C-36.76761719 75.03873047 -36.76761719 75.03873047 -35.3828125 75.26953125 C-33 76 -33 76 -31 79 C-30.92094936 81.33199388 -30.91201231 83.66832622 -31 86 C-26.51866426 86.72256829 -26.51866426 86.72256829 -22 87 C-23.08784968 83.75016865 -23.08784968 83.75016865 -25 81 C-24.91062197 79.47480724 -24.75462854 77.95318071 -24.5625 76.4375 C-24.40974609 75.19806641 -24.40974609 75.19806641 -24.25390625 73.93359375 C-24.17011719 73.29550781 -24.08632813 72.65742187 -24 72 C-23.030625 71.7525 -22.06125 71.505 -21.0625 71.25 C-16.53927424 69.92072549 -11.98631667 68.56969174 -8 66 C-6.33083781 62.92528226 -6.33083781 62.92528226 -6 60 C-5.01 60 -4.02 60 -3 60 C-0.87495985 53.82726434 0.5644676 48.54782416 0 42 C-0.31453125 41.3709375 -0.6290625 40.741875 -0.953125 40.09375 C-2.15551848 37.68896305 -2.59316335 35.51748368 -3.0625 32.875 C-3.68273802 29.32208742 -3.68273802 29.32208742 -5 26 C-5.25 23 -5.25 23 -5 20 C-1.5647952 17.70986347 -0.014669 17.82157027 4 18 C2.95672557 13.85348772 2.95672557 13.85348772 0.375 10.625 C-2.0242595 7.78951149 -1.23149214 4.58812819 -1 1 C-0.67 0.67 -0.34 0.34 0 0 Z M-98 232 C-97.34 232.66 -96.68 233.32 -96 234 C-96 233.34 -96 232.68 -96 232 C-96.66 232 -97.32 232 -98 232 Z " fill="#F8F9F9" transform="translate(324,23)"/>
<path d="M0 0 C0.66 0 1.32 0 2 0 C2 0.66 2 1.32 2 2 C3.98 2 5.96 2 8 2 C10.12794358 7.38244554 10.12794358 7.38244554 9.50390625 10.39453125 C8.9446187 13.2863514 9.2236963 15.14497009 9.875 18 C10.05804688 18.825 10.24109375 19.65 10.4296875 20.5 C10.61789063 21.325 10.80609375 22.15 11 23 C11.33 24.65 11.66 26.3 12 28 C15.63 28 19.26 28 23 28 C23.33 27.01 23.66 26.02 24 25 C24.66 25 25.32 25 26 25 C26.33 23.68 26.66 22.36 27 21 C27.99 21 28.98 21 30 21 C30.98751973 24.85132694 30.97374218 27.64639712 30 31.4375 C28.97523002 35.60676964 28.84281698 38.78454758 30 43 C30.680625 43.66 31.36125 44.32 32.0625 45 C34 47 34 47 34.25 50.75 C34.1675 51.8225 34.085 52.895 34 54 C32.68 53.34 31.36 52.68 30 52 C30 51.01 30 50.02 30 49 C29.22914063 48.89042969 28.45828125 48.78085938 27.6640625 48.66796875 C26.15972656 48.43013672 26.15972656 48.43013672 24.625 48.1875 C23.62726563 48.03667969 22.62953125 47.88585937 21.6015625 47.73046875 C19 47 19 47 17 44 C13.91420442 42.0056867 11.25293661 41.70324575 7.625 41.5 C3.4573771 41.19314691 -0.09379776 40.5835955 -4 39 C-3.67 37.68 -3.34 36.36 -3 35 C-3.99 34.67 -4.98 34.34 -6 34 C-6 31.69 -6 29.38 -6 27 C-6.66 27 -7.32 27 -8 27 C-7.67 25.68 -7.34 24.36 -7 23 C-5.35 23 -3.7 23 -2 23 C-1.08526295 20.3574263 -1.02247316 18.86797019 -1.5 16.0625 C-2.00370622 12.97729943 -1.68669471 11.00428935 -1 8 C-1.33 7.67 -1.66 7.34 -2 7 C-2.1875 4.5625 -2.1875 4.5625 -2 2 C-1.34 1.34 -0.68 0.68 0 0 Z " fill="#E7E7E7" transform="translate(197,185)"/>
<path d="M0 0 C3.80445689 1.71435403 5.0815732 3.25034762 7 7 C7.28875 7.886875 7.5775 8.77375 7.875 9.6875 C8.79335695 12.24966652 8.79335695 12.24966652 11.5 12.9375 C14 14 14 14 15.3125 17.125 C15.6528125 18.548125 15.6528125 18.548125 16 20 C15.34 20 14.68 20 14 20 C13.81824219 20.84304687 13.63648438 21.68609375 13.44921875 22.5546875 C13.19785156 23.65039062 12.94648438 24.74609375 12.6875 25.875 C12.44386719 26.96554687 12.20023438 28.05609375 11.94921875 29.1796875 C11 32 11 32 8 34 C7.58235618 36.81274752 7.58235618 36.81274752 7.70703125 40.1015625 C7.71669922 41.31328125 7.72636719 42.525 7.73632812 43.7734375 C7.76146484 45.04445313 7.78660156 46.31546875 7.8125 47.625 C7.82603516 48.90375 7.83957031 50.1825 7.85351562 51.5 C7.88896804 54.66708282 7.93838559 57.83333541 8 61 C6.515 61.495 6.515 61.495 5 62 C2.90608408 56.84383551 2.72733701 52.40137786 2.8125 46.9375 C2.81314453 46.14794922 2.81378906 45.35839844 2.81445312 44.54492188 C2.84461776 40.54643198 3.14834549 36.91905423 4 33 C3.69496569 30.99548879 3.35919321 28.99551782 3 27 C3.04125 25.865625 3.0825 24.73125 3.125 23.5625 C3.0012131 20.03457322 2.18487352 18.27368535 0.66796875 15.17578125 C-0.81892382 10.33251129 -0.20351628 5.01253062 0 0 Z " fill="#D0D0D0" transform="translate(129,234)"/>
<path d="M0 0 C1.9375 0.3125 1.9375 0.3125 4 1 C4.33 1.99 4.66 2.98 5 4 C5.65484375 4.25910156 6.3096875 4.51820313 6.984375 4.78515625 C9 6 9 6 9.828125 8.93359375 C9.96734375 10.08988281 10.1065625 11.24617187 10.25 12.4375 C10.39953125 13.59121094 10.5490625 14.74492187 10.703125 15.93359375 C11 19 11 19 11 22 C11.65484375 22.42925781 12.3096875 22.85851562 12.984375 23.30078125 C15 25 15 25 15.390625 27.91796875 C15.32101563 29.53638672 15.32101563 29.53638672 15.25 31.1875 C15.21390625 32.27417969 15.1778125 33.36085937 15.140625 34.48046875 C15.07101563 35.72763672 15.07101563 35.72763672 15 37 C13.68 37.66 12.36 38.32 11 39 C7.11736749 35.76447291 6.03257023 32.9047086 5 28 C4.875 25.0625 4.875 25.0625 5 23 C4.34 23 3.68 23 3 23 C2.54625 22.360625 2.0925 21.72125 1.625 21.0625 C-0.21084873 18.7323843 -1.12909413 18.39598702 -4 18 C-4.33 15.69 -4.66 13.38 -5 11 C-3.35 10.01 -1.7 9.02 0 8 C-1.32 7.34 -2.64 6.68 -4 6 C-3.67 4.68 -3.34 3.36 -3 2 C-2.34 2 -1.68 2 -1 2 C-0.67 1.34 -0.34 0.68 0 0 Z " fill="#DDDDDD" transform="translate(111,206)"/>
<path d="M0 0 C3.77126791 1.01180358 4.78414572 1.67621858 7 5 C7 5.99 7 6.98 7 8 C7.598125 7.814375 8.19625 7.62875 8.8125 7.4375 C11 7 11 7 14 8 C14 8.99 14 9.98 14 11 C14.66 11 15.32 11 16 11 C19.68024726 19.37932003 19.68024726 19.37932003 18 24 C17 25 17 25 14.625 25.3125 C12 25 12 25 10.25 23.1875 C9 21 9 21 8 18 C6.12612784 17.19787372 6.12612784 17.19787372 3.9375 16.8125 C2.83728516 16.57466797 2.83728516 16.57466797 1.71484375 16.33203125 C0.86599609 16.16767578 0.86599609 16.16767578 0 16 C-0.33 14.35 -0.66 12.7 -1 11 C-1.99 10.67 -2.98 10.34 -4 10 C-3.51171875 3.9453125 -3.51171875 3.9453125 -3 2 C-2.01 1.34 -1.02 0.68 0 0 Z " fill="#E6E6E6" transform="translate(239,331)"/>
<path d="M0 0 C0.33 1.32 0.66 2.64 1 4 C3.31 4.33 5.62 4.66 8 5 C8 5.99 8 6.98 8 8 C5.03 7.505 5.03 7.505 2 7 C2 8.32 2 9.64 2 11 C0.68 10.67 -0.64 10.34 -2 10 C-1.67 11.98 -1.34 13.96 -1 16 C-6.625 16.25 -6.625 16.25 -10 14 C-10 14.66 -10 15.32 -10 16 C-12.31 16 -14.62 16 -17 16 C-17.625 14.1875 -17.625 14.1875 -18 12 C-17.34 11.01 -16.68 10.02 -16 9 C-15.67 7.989375 -15.34 6.97875 -15 5.9375 C-14 3 -14 3 -12 1 C-7.96274685 0.08244247 -4.12998306 -0.09833293 0 0 Z " fill="#D7D7D7" transform="translate(174,273)"/>
<path d="M0 0 C1.67542976 0.28604898 3.34385343 0.61781233 5 1 C5.103125 1.639375 5.20625 2.27875 5.3125 2.9375 C5.539375 3.618125 5.76625 4.29875 6 5 C6.99 5.33 7.98 5.66 9 6 C9.08150744 8.06183633 9.1394194 10.12461349 9.1875 12.1875 C9.22230469 13.33605469 9.25710938 14.48460937 9.29296875 15.66796875 C8.97622579 19.27039199 8.08533398 21.09366839 6 24 C3 23 3 23 1.578125 20.375 C-1.19349113 13.33183431 -2.73706945 8.44458336 -1 1 C-0.67 0.67 -0.34 0.34 0 0 Z " fill="#D5D5D5" transform="translate(346,1)"/>
<path d="M0 0 C0.33 2.31 0.66 4.62 1 7 C0.071875 7.53625 -0.85625 8.0725 -1.8125 8.625 C-5.24016479 11.17894631 -6.4037685 13.09810078 -8 17 C-9.32 16.67 -10.64 16.34 -12 16 C-12 14.02 -12 12.04 -12 10 C-12.66 9.67 -13.32 9.34 -14 9 C-13.67 7.35 -13.34 5.7 -13 4 C-12.01 3.67 -11.02 3.34 -10 3 C-9.67 3.99 -9.34 4.98 -9 6 C-8.319375 4.7934375 -8.319375 4.7934375 -7.625 3.5625 C-5.23083706 -0.2129108 -4.57751518 0 0 0 Z " fill="#D1D1D1" transform="translate(400,260)"/>
<path d="M0 0 C-0.86728937 6.93831496 -4.46146018 12.81309734 -9 18 C-10.65 17.67 -12.3 17.34 -14 17 C-15.125 11.25 -15.125 11.25 -14 9 C-13.01 9 -12.02 9 -11 9 C-10.979375 8.071875 -10.95875 7.14375 -10.9375 6.1875 C-10 3 -10 3 -6.625 1.125 C-3 0 -3 0 0 0 Z " fill="#D7D7D7" transform="translate(267,74)"/>
<path d="M0 0 C1.65 0.33 3.3 0.66 5 1 C5.09796875 1.61488281 5.1959375 2.22976562 5.296875 2.86328125 C6.24177417 7.97062419 6.77198803 9.89945789 11 13 C11.25 16.6875 11.25 16.6875 11 20 C9.02 19.34 7.04 18.68 5 18 C5 16.68 5 15.36 5 14 C4.38125 13.938125 3.7625 13.87625 3.125 13.8125 C1 13 1 13 -0.3125 10.9375 C-1.23903517 6.9786679 -0.67818907 4.0013155 0 0 Z " fill="#C8C8C8" transform="translate(198,160)"/>
<path d="M0 0 C2.0625 0.4375 2.0625 0.4375 4 1 C4.5361079 3.18380675 5.05320098 5.37228583 5.5625 7.5625 C5.85253906 8.78066406 6.14257812 9.99882812 6.44140625 11.25390625 C7.02033181 15.13635106 6.74517495 18.16555673 6 22 C3 22 3 22 1.3125 20.375 C-0.34264068 17.37998354 -0.1382992 15.38833037 0 12 C-0.165 11.175 -0.33 10.35 -0.5 9.5 C-1.07886636 6.60566818 -1.13383752 3.94442546 -1 1 C-0.67 0.67 -0.34 0.34 0 0 Z " fill="#C8C8C8" transform="translate(144,216)"/>
<path d="M0 0 C6.52307692 0.49230769 6.52307692 0.49230769 8.9375 3.0625 C9.288125 3.701875 9.63875 4.34125 10 5 C9.01 5.495 9.01 5.495 8 6 C7.01 5.67 6.02 5.34 5 5 C4.67 7.31 4.34 9.62 4 12 C3.01 12 2.02 12 1 12 C1 11.34 1 10.68 1 10 C0.443125 10.350625 -0.11375 10.70125 -0.6875 11.0625 C-3.53886783 12.21845993 -5.08517222 11.80967438 -8 11 C-8.33 9.35 -8.66 7.7 -9 6 C-5.535 5.505 -5.535 5.505 -2 5 C-1.34 3.35 -0.68 1.7 0 0 Z " fill="#D2D2D2" transform="translate(381,71)"/>
<path d="M0 0 C2.97 0 5.94 0 9 0 C9.33 0.99 9.66 1.98 10 3 C10.66 3 11.32 3 12 3 C12.33 6.96 12.66 10.92 13 15 C9.28631113 13.76210371 8.22645819 12.14775123 6 9 C6 8.34 6 7.68 6 7 C5.21625 6.690625 4.4325 6.38125 3.625 6.0625 C1 5 1 5 -1 4 C-0.67 2.68 -0.34 1.36 0 0 Z " fill="#D1D1D1" transform="translate(102,305)"/>
<path d="M0 0 C1.98 0 3.96 0 6 0 C7.49594333 4.67482292 7.54799337 9.35601989 6 14 C5.01 14 4.02 14 3 14 C1.10931758 11.08784151 -0.6542729 8.20615459 -2 5 C-1.3125 1.9375 -1.3125 1.9375 0 0 Z " fill="#CACACA" transform="translate(125,219)"/>
<path d="M0 0 C4.22834517 -0.41454364 6.33162944 -0.46495343 9.875 2 C12.6177954 5.87218174 12.76150722 8.30964199 13 13 C12.01 13.33 11.02 13.66 10 14 C9.835 13.0925 9.67 12.185 9.5 11.25 C7.42038495 6.74416738 4.46472009 5.76512189 0 4 C0 2.68 0 1.36 0 0 Z " fill="#C4C4C4" transform="translate(89,290)"/>
<path d="M0 0 C3.65316671 1.24976756 4.78065836 1.67098753 7 5 C6.6758631 8.32240324 6.39223697 9.60776303 4 12 C2.68 12 1.36 12 0 12 C0 11.34 0 10.68 0 10 C-0.66 10 -1.32 10 -2 10 C-1.85950482 8.52031676 -1.71245174 7.04125484 -1.5625 5.5625 C-1.48128906 4.73878906 -1.40007812 3.91507812 -1.31640625 3.06640625 C-1 1 -1 1 0 0 Z " fill="#C6C6C6" transform="translate(219,357)"/>
<path d="M0 0 C3 0 3 0 4.75 1.5625 C6.5135117 5.00134782 5.82165598 7.3025481 5 11 C4.67 11.66 4.34 12.32 4 13 C3.34 13 2.68 13 2 13 C2 13.66 2 14.32 2 15 C1.34 15 0.68 15 0 15 C-0.19390729 12.68802845 -0.37996367 10.3753971 -0.5625 8.0625 C-0.71912109 6.13083984 -0.71912109 6.13083984 -0.87890625 4.16015625 C-0.91886719 3.11730469 -0.95882812 2.07445312 -1 1 C-0.67 0.67 -0.34 0.34 0 0 Z " fill="#C3C3C3" transform="translate(186,224)"/>
<path d="M0 0 C3.66075376 -0.3327958 5.39500988 -0.46170299 8.375 1.8125 C10 4 10 4 10 7 C5.94393835 6.53199289 2.53411321 6.12046792 -1 4 C-0.67 2.68 -0.34 1.36 0 0 Z " fill="#CCCCCC" transform="translate(178,312)"/>
<path d="M0 0 C0 3.63 0 7.26 0 11 C-1.32 10.34 -2.64 9.68 -4 9 C-4 8.34 -4 7.68 -4 7 C-4.66 7 -5.32 7 -6 7 C-6 5.02 -6 3.04 -6 1 C-1.125 0 -1.125 0 0 0 Z " fill="#D6D6D6" transform="translate(255,322)"/>
<path d="M0 0 C0.66 0 1.32 0 2 0 C3.15864709 4.05526482 3.23164315 5.55325964 1.25 9.375 C0.5075 10.24125 -0.235 11.1075 -1 12 C-1.99 12 -2.98 12 -4 12 C-3.33501617 7.61110675 -1.81242323 4.0188515 0 0 Z " fill="#B0B0B0" transform="translate(169,291)"/>
<path d="M0 0 C1.98 0 3.96 0 6 0 C6 2.31 6 4.62 6 7 C4.68 7.33 3.36 7.66 2 8 C0.23537317 4.91190305 0 3.76687864 0 0 Z " fill="#CFCFCF" transform="translate(238,306)"/>
<path d="M0 0 C1.98 0 3.96 0 6 0 C6 1.98 6 3.96 6 6 C3.69 5.67 1.38 5.34 -1 5 C-0.67 3.35 -0.34 1.7 0 0 Z " fill="#BEBEBE" transform="translate(181,300)"/>
<path d="M0 0 C0.99 0 1.98 0 3 0 C2.67 2.64 2.34 5.28 2 8 C1.01 8 0.02 8 -1 8 C-0.67 5.36 -0.34 2.72 0 0 Z " fill="#9C9C9C" transform="translate(303,54)"/>
<path d="M0 0 C0.99 0.33 1.98 0.66 3 1 C2.67 1.99 2.34 2.98 2 4 C0.35 4 -1.3 4 -3 4 C-3 3.34 -3 2.68 -3 2 C-2.01 1.34 -1.02 0.68 0 0 Z " fill="#AEAEAE" transform="translate(315,21)"/>
<path d="M0 0 C0.99 0 1.98 0 3 0 C3 1.65 3 3.3 3 5 C2.01 4.67 1.02 4.34 0 4 C0 2.68 0 1.36 0 0 Z " fill="#A6A6A6" transform="translate(156,320)"/>
<path d="M0 0 C0.99 0 1.98 0 3 0 C3 1.32 3 2.64 3 4 C2.01 4 1.02 4 0 4 C0 2.68 0 1.36 0 0 Z " fill="#C1C1C1" transform="translate(255,180)"/>
<path d="M0 0 C0.99 0 1.98 0 3 0 C2.67 1.32 2.34 2.64 2 4 C1.34 4 0.68 4 0 4 C0 2.68 0 1.36 0 0 Z " fill="#A7A7A7" transform="translate(227,221)"/>
<path d="M0 0 C0.99 0 1.98 0 3 0 C2.67 1.32 2.34 2.64 2 4 C1.34 3.67 0.68 3.34 0 3 C0 2.01 0 1.02 0 0 Z " fill="#A7A7A7" transform="translate(192,158)"/>
<path d="M0 0 C0.99 0 1.98 0 3 0 C3 0.99 3 1.98 3 3 C1.68 2.67 0.36 2.34 -1 2 C-0.67 1.34 -0.34 0.68 0 0 Z " fill="#C8C8C8" transform="translate(361,43)"/>
<path d="M0 0 C0.99 0 1.98 0 3 0 C3 0.99 3 1.98 3 3 C2.01 3 1.02 3 0 3 C0 2.01 0 1.02 0 0 Z " fill="#C5C5C5" transform="translate(238,285)"/>
<path d="M0 0 C0.99 0 1.98 0 3 0 C3 0.99 3 1.98 3 3 C2.01 3 1.02 3 0 3 C0 2.01 0 1.02 0 0 Z " fill="#7F7F7F" transform="translate(214,199)"/>
<path d="M0 0 C0.99 0.33 1.98 0.66 3 1 C3 1.66 3 2.32 3 3 C2.01 3 1.02 3 0 3 C0 2.01 0 1.02 0 0 Z " fill="#A8A8A8" transform="translate(190,311)"/>
<path d="M0 0 C0.99 0.33 1.98 0.66 3 1 C3 1.66 3 2.32 3 3 C2.01 3 1.02 3 0 3 C0 2.01 0 1.02 0 0 Z " fill="#A8A8A8" transform="translate(366,34)"/>
<path d="M0 0 C0.66 0 1.32 0 2 0 C2 0.66 2 1.32 2 2 C1.34 2 0.68 2 0 2 C0 1.34 0 0.68 0 0 Z " fill="#464646" transform="translate(205,183)"/>
<path d="" fill="#313131" transform="translate(0,0)"/>
</svg>
