<svg id="svg" version="1.1" xmlns="http://www.w3.org/2000/svg" xmlns:xlink="http://www.w3.org/1999/xlink" width="400" height="355.9633027522936" viewBox="0, 0, 400,400"><g id="svgg">
<path id="path0" d="M329.831 23.439 C 329.831 23.792,330.410 24.633,331.118 25.309 C 336.705 30.635,342.703 42.408,344.650 51.867 C 345.434 55.675,345.766 71.810,345.155 76.368 C 344.645 80.174,343.244 86.990,342.662 88.505 C 342.437 89.088,342.032 90.618,341.762 91.904 C 341.171 94.709,339.722 99.239,338.914 100.801 C 338.593 101.422,337.946 103.107,337.476 104.545 C 336.760 106.741,332.308 116.500,330.328 120.214 C 330.015 120.801,328.874 122.965,327.791 125.022 C 324.110 132.019,318.783 140.630,315.657 144.640 C 314.931 145.571,313.895 147.108,313.354 148.055 C 312.814 149.002,311.452 150.917,310.327 152.310 C 309.202 153.703,306.957 156.508,305.338 158.543 C 297.370 168.561,292.096 174.480,282.102 184.623 C 277.106 189.693,272.057 194.647,270.882 195.633 C 269.706 196.618,267.458 198.645,265.886 200.137 C 264.314 201.629,262.230 203.485,261.256 204.262 C 260.281 205.039,258.665 206.401,257.664 207.290 C 254.855 209.782,247.790 215.435,244.518 217.809 C 242.898 218.985,240.313 220.908,238.773 222.082 C 233.262 226.288,229.488 228.920,221.918 233.838 C 220.712 234.622,219.053 235.752,218.233 236.351 C 217.412 236.950,215.298 238.294,213.535 239.340 C 211.772 240.385,209.448 241.786,208.370 242.455 C 205.619 244.161,198.853 248.158,197.731 248.740 C 197.216 249.007,193.829 250.797,190.205 252.716 C 183.330 256.358,177.512 259.305,177.198 259.305 C 177.097 259.305,174.814 260.369,172.123 261.669 C 169.432 262.969,166.109 264.471,164.737 265.008 C 160.313 266.738,154.840 268.942,151.760 270.235 C 148.002 271.812,133.703 276.550,130.467 277.290 C 129.137 277.594,127.088 278.153,125.913 278.532 C 122.384 279.670,117.945 280.731,113.910 281.403 C 111.814 281.752,109.949 282.130,109.765 282.243 C 109.218 282.581,98.875 284.147,93.321 284.732 C 81.609 285.965,63.801 285.636,56.812 284.056 C 55.441 283.745,53.357 283.334,52.182 283.141 C 51.006 282.949,49.083 282.478,47.907 282.095 C 38.422 279.008,37.630 278.700,32.883 276.245 C 23.519 271.404,16.147 264.548,10.901 255.802 C 9.354 253.223,7.884 251.113,7.634 251.113 C 5.367 251.113,6.384 272.930,9.103 282.636 C 14.800 302.971,23.402 315.868,39.469 328.165 C 41.698 329.871,50.095 334.792,53.358 336.304 C 55.062 337.094,57.299 338.130,58.329 338.607 C 65.069 341.724,79.490 345.432,89.403 346.598 C 97.070 347.499,98.931 347.644,105.610 347.861 C 119.509 348.313,136.278 346.738,151.915 343.514 C 163.038 341.219,165.476 340.640,170.746 339.033 C 173.854 338.086,176.740 337.310,177.157 337.308 C 178.017 337.305,184.658 335.123,186.821 334.133 C 187.605 333.774,190.410 332.727,193.054 331.806 C 200.395 329.248,203.490 327.996,215.316 322.799 C 223.823 319.061,242.027 309.673,247.400 306.252 C 248.757 305.388,250.988 304.065,252.360 303.311 C 255.078 301.817,274.102 289.204,278.758 285.811 C 287.457 279.469,297.592 271.614,300.290 269.123 C 303.294 266.349,306.566 263.531,309.706 261.013 C 316.095 255.889,339.431 231.325,345.503 223.333 C 346.189 222.430,347.885 220.338,349.271 218.682 C 350.658 217.027,353.051 213.829,354.589 211.576 C 356.127 209.323,358.141 206.518,359.065 205.343 C 360.847 203.075,364.814 196.950,367.586 192.187 C 368.506 190.607,370.148 187.864,371.235 186.092 C 374.010 181.567,382.327 164.812,383.064 162.263 C 383.401 161.097,384.137 159.231,384.700 158.116 C 388.329 150.927,393.411 131.044,394.979 117.898 C 396.264 107.124,395.535 93.048,393.254 84.595 C 392.884 83.224,392.466 81.300,392.326 80.321 C 392.185 79.341,391.789 77.979,391.445 77.293 C 391.101 76.607,390.302 74.524,389.670 72.663 C 385.360 59.968,373.950 45.274,362.289 37.400 C 361.564 36.910,359.924 35.761,358.646 34.846 C 355.572 32.648,348.362 28.629,345.677 27.617 C 344.499 27.173,342.565 26.320,341.380 25.722 C 340.195 25.124,338.595 24.519,337.823 24.379 C 337.052 24.238,335.653 23.825,334.715 23.460 C 332.421 22.567,329.831 22.556,329.831 23.439 " stroke="none" fill="#0474ac" fill-rule="evenodd"></path>
<path id="path1" d="M326.150 20.540 C 325.387 21.303,326.161 22.632,329.565 26.406 C 334.435 31.804,340.873 42.346,340.873 44.922 C 340.873 45.316,341.191 46.389,341.580 47.307 C 343.311 51.389,344.634 67.023,343.748 72.915 C 343.548 74.245,343.136 77.177,342.832 79.430 C 342.528 81.683,341.891 84.809,341.417 86.376 C 340.942 87.943,340.035 91.229,339.401 93.678 C 338.767 96.126,337.701 99.332,337.033 100.801 C 336.364 102.271,335.529 104.354,335.178 105.432 C 333.096 111.825,323.392 130.121,317.421 138.914 C 315.758 141.362,313.316 144.969,311.994 146.928 C 310.672 148.887,308.651 151.612,307.503 152.983 C 306.355 154.354,304.299 156.919,302.935 158.682 C 301.570 160.445,298.529 164.107,296.175 166.819 C 293.822 169.532,290.993 172.818,289.889 174.121 C 285.917 178.809,265.204 198.818,259.484 203.494 C 258.112 204.615,256.109 206.267,255.031 207.166 C 249.890 211.456,246.175 214.417,243.686 216.209 C 242.188 217.288,239.486 219.291,237.682 220.661 C 230.493 226.121,217.287 234.988,208.370 240.342 C 204.942 242.400,201.736 244.365,201.247 244.707 C 200.757 245.049,199.154 245.966,197.685 246.744 C 183.850 254.070,180.542 255.770,176.670 257.541 C 174.221 258.662,170.454 260.415,168.299 261.438 C 166.144 262.460,163.419 263.659,162.244 264.102 C 159.662 265.074,153.868 267.394,149.198 269.326 C 147.311 270.107,144.987 270.970,144.033 271.246 C 141.442 271.994,137.873 273.190,136.064 273.917 C 135.183 274.271,133.460 274.742,132.236 274.963 C 131.012 275.184,129.329 275.608,128.496 275.906 C 126.455 276.635,113.495 279.851,111.487 280.127 C 110.606 280.248,107.961 280.732,105.610 281.203 C 103.259 281.674,98.931 282.309,95.993 282.614 C 93.054 282.920,89.849 283.320,88.869 283.505 C 84.657 284.298,66.901 283.851,60.552 282.791 C 34.899 278.510,20.214 269.469,11.161 252.382 C 8.584 247.518,7.244 246.000,6.252 246.823 C 3.473 249.130,4.406 273.423,7.683 284.061 C 8.166 285.628,8.558 287.196,8.555 287.545 C 8.551 287.895,8.929 288.936,9.393 289.860 C 9.858 290.784,10.494 292.422,10.807 293.500 C 11.627 296.329,16.718 306.394,18.939 309.577 C 24.354 317.338,34.419 327.411,40.402 331.057 C 49.764 336.762,58.677 341.278,62.155 342.077 C 62.743 342.212,64.025 342.624,65.004 342.993 C 67.818 344.051,74.115 345.859,74.986 345.859 C 75.422 345.859,76.480 346.110,77.337 346.416 C 78.194 346.722,80.812 347.212,83.155 347.505 C 85.497 347.797,88.622 348.280,90.100 348.577 C 96.549 349.873,125.419 349.868,131.612 348.569 C 132.983 348.282,136.028 347.870,138.379 347.655 C 140.730 347.440,144.016 346.963,145.681 346.595 C 149.467 345.758,153.723 344.905,158.326 344.059 C 162.288 343.332,167.809 341.942,170.258 341.055 C 171.140 340.736,173.945 339.940,176.492 339.285 C 181.528 337.991,185.850 336.599,188.185 335.518 C 189.002 335.140,192.395 333.883,195.726 332.725 C 201.374 330.761,204.565 329.465,216.380 324.333 C 221.465 322.125,239.199 313.125,243.989 310.323 C 245.654 309.349,249.020 307.381,251.469 305.950 C 253.918 304.520,260.650 300.211,266.429 296.376 C 275.317 290.477,281.089 286.299,297.289 274.034 C 298.363 273.221,300.253 271.618,301.490 270.472 C 305.448 266.804,308.524 264.146,310.206 262.942 C 312.683 261.169,331.794 242.063,336.530 236.625 C 338.821 233.995,341.629 230.769,342.771 229.457 C 343.913 228.144,345.596 226.092,346.511 224.897 C 347.426 223.701,349.309 221.377,350.696 219.732 C 352.083 218.087,354.537 214.817,356.150 212.467 C 357.763 210.116,359.942 207.089,360.991 205.740 C 362.041 204.391,364.395 200.826,366.223 197.818 C 368.050 194.811,370.748 190.378,372.217 187.967 C 375.335 182.853,383.621 166.342,384.501 163.491 C 384.833 162.413,385.717 160.169,386.465 158.504 C 387.847 155.426,388.498 153.640,389.664 149.727 C 390.023 148.524,390.492 147.212,390.707 146.810 C 390.921 146.409,391.332 145.069,391.620 143.833 C 392.249 141.129,393.676 135.271,394.423 132.324 C 394.721 131.149,395.066 129.305,395.190 128.228 C 395.314 127.150,395.722 124.987,396.098 123.419 C 397.444 117.795,397.655 97.315,396.436 90.650 C 395.357 84.754,393.455 77.004,392.737 75.575 C 392.276 74.659,391.625 72.958,391.290 71.795 C 390.666 69.631,390.043 68.250,387.018 62.333 C 384.129 56.682,380.394 51.646,374.899 45.993 C 365.033 35.845,353.860 28.557,340.160 23.332 C 334.881 21.319,326.952 19.739,326.150 20.540 M232.194 21.016 C 223.569 21.656,211.566 23.732,202.493 26.153 C 197.007 27.617,181.643 32.755,179.536 33.829 C 178.724 34.244,176.665 35.070,174.960 35.666 C 173.256 36.261,171.311 37.067,170.638 37.457 C 169.966 37.846,167.745 38.878,165.704 39.750 C 156.560 43.656,135.479 55.285,128.940 60.030 C 128.059 60.670,124.933 62.816,121.995 64.799 C 114.060 70.153,111.935 71.758,99.555 81.754 C 97.204 83.652,93.998 86.445,92.431 87.960 C 90.864 89.475,88.365 91.702,86.878 92.909 C 81.764 97.061,66.839 113.367,59.857 122.432 C 50.804 134.185,39.489 153.385,36.541 161.994 C 33.019 172.280,31.537 177.191,31.201 179.697 C 31.095 180.481,30.747 182.763,30.426 184.768 C 28.510 196.745,31.594 212.370,37.333 219.768 C 37.865 220.454,38.760 221.695,39.322 222.527 C 43.389 228.546,56.245 236.025,66.429 238.296 C 77.136 240.683,87.266 241.145,87.266 239.245 C 87.266 239.000,86.374 237.924,85.283 236.853 C 77.334 229.051,77.534 215.072,85.842 197.863 C 87.261 194.924,88.628 192.280,88.880 191.986 C 89.132 191.692,90.631 189.401,92.212 186.895 C 98.955 176.204,112.036 160.438,120.990 152.209 C 123.084 150.284,126.251 147.341,128.027 145.670 C 129.803 143.998,132.057 142.001,133.037 141.231 C 134.016 140.461,135.799 138.944,136.999 137.859 C 138.199 136.774,140.009 135.245,141.022 134.461 C 142.034 133.678,143.777 132.273,144.895 131.339 C 146.013 130.406,147.729 129.091,148.709 128.418 C 149.688 127.745,152.012 126.060,153.874 124.675 C 166.912 114.969,184.011 104.520,198.397 97.468 C 209.520 92.016,213.752 90.180,221.906 87.272 C 224.550 86.329,227.115 85.392,227.605 85.191 C 228.797 84.702,237.833 82.055,239.181 81.801 C 239.768 81.690,241.772 81.265,243.633 80.856 C 252.236 78.966,252.382 78.951,261.977 78.923 C 273.439 78.889,277.657 79.827,283.762 83.765 C 285.701 85.015,289.701 89.497,290.126 90.895 C 290.481 92.062,292.023 94.034,292.581 94.034 C 293.276 94.034,294.703 90.455,295.928 85.640 C 306.634 43.556,280.846 17.408,232.194 21.016 M334.715 23.460 C 335.653 23.825,337.052 24.238,337.823 24.379 C 338.595 24.519,340.195 25.124,341.380 25.722 C 342.565 26.320,344.499 27.173,345.677 27.617 C 348.362 28.629,355.572 32.648,358.646 34.846 C 359.924 35.761,361.564 36.910,362.289 37.400 C 373.950 45.274,385.360 59.968,389.670 72.663 C 390.302 74.524,391.101 76.607,391.445 77.293 C 391.789 77.979,392.185 79.341,392.326 80.321 C 392.466 81.300,392.884 83.224,393.254 84.595 C 395.535 93.048,396.264 107.124,394.979 117.898 C 393.411 131.044,388.329 150.927,384.700 158.116 C 384.137 159.231,383.401 161.097,383.064 162.263 C 382.327 164.812,374.010 181.567,371.235 186.092 C 370.148 187.864,368.506 190.607,367.586 192.187 C 364.814 196.950,360.847 203.075,359.065 205.343 C 358.141 206.518,356.127 209.323,354.589 211.576 C 353.051 213.829,350.658 217.027,349.271 218.682 C 347.885 220.338,346.189 222.430,345.503 223.333 C 339.431 231.325,316.095 255.889,309.706 261.013 C 306.566 263.531,303.294 266.349,300.290 269.123 C 297.592 271.614,287.457 279.469,278.758 285.811 C 274.102 289.204,255.078 301.817,252.360 303.311 C 250.988 304.065,248.757 305.388,247.400 306.252 C 242.027 309.673,223.823 319.061,215.316 322.799 C 203.490 327.996,200.395 329.248,193.054 331.806 C 190.410 332.727,187.605 333.774,186.821 334.133 C 184.658 335.123,178.017 337.305,177.157 337.308 C 176.740 337.310,173.854 338.086,170.746 339.033 C 165.476 340.640,163.038 341.219,151.915 343.514 C 141.037 345.757,131.792 346.951,119.679 347.676 C 112.554 348.103,101.100 347.921,95.459 347.292 C 85.336 346.162,82.031 345.627,75.156 344.006 C 70.263 342.852,61.269 339.966,58.329 338.607 C 57.299 338.130,55.062 337.094,53.358 336.304 C 50.095 334.792,41.698 329.871,39.469 328.165 C 23.402 315.868,14.800 302.971,9.103 282.636 C 6.384 272.930,5.367 251.113,7.634 251.113 C 7.884 251.113,9.354 253.223,10.901 255.802 C 16.147 264.548,23.519 271.404,32.883 276.245 C 37.630 278.700,38.422 279.008,47.907 282.095 C 49.083 282.478,51.006 282.949,52.182 283.141 C 53.357 283.334,55.441 283.745,56.812 284.056 C 63.801 285.636,81.609 285.965,93.321 284.732 C 98.875 284.147,109.218 282.581,109.765 282.243 C 109.949 282.130,111.814 281.752,113.910 281.403 C 117.945 280.731,122.384 279.670,125.913 278.532 C 127.088 278.153,129.137 277.594,130.467 277.290 C 133.703 276.550,148.002 271.812,151.760 270.235 C 154.840 268.942,160.313 266.738,164.737 265.008 C 166.109 264.471,169.432 262.969,172.123 261.669 C 174.814 260.369,177.097 259.305,177.198 259.305 C 177.512 259.305,183.330 256.358,190.205 252.716 C 193.829 250.797,197.216 249.007,197.731 248.740 C 198.853 248.158,205.619 244.161,208.370 242.455 C 209.448 241.786,211.772 240.385,213.535 239.340 C 215.298 238.294,217.412 236.950,218.233 236.351 C 219.053 235.752,220.712 234.622,221.918 233.838 C 229.488 228.920,233.262 226.288,238.773 222.082 C 240.313 220.908,242.898 218.985,244.518 217.809 C 247.790 215.435,254.855 209.782,257.664 207.290 C 258.665 206.401,260.281 205.039,261.256 204.262 C 262.230 203.485,264.314 201.629,265.886 200.137 C 267.458 198.645,269.706 196.618,270.882 195.633 C 272.057 194.647,277.106 189.693,282.102 184.623 C 292.096 174.480,297.370 168.561,305.338 158.543 C 306.957 156.508,309.202 153.703,310.327 152.310 C 311.452 150.917,312.814 149.002,313.354 148.055 C 313.895 147.108,314.931 145.571,315.657 144.640 C 318.783 140.630,324.110 132.019,327.791 125.022 C 328.874 122.965,330.015 120.801,330.328 120.214 C 332.308 116.500,336.760 106.741,337.476 104.545 C 337.946 103.107,338.593 101.422,338.914 100.801 C 339.722 99.239,341.171 94.709,341.762 91.904 C 342.032 90.618,342.437 89.088,342.662 88.505 C 346.269 79.126,346.518 57.139,343.143 45.989 C 341.204 39.584,335.124 29.128,331.118 25.309 C 328.612 22.920,330.644 21.875,334.715 23.460 " stroke="none" fill="#9cb4d4" fill-rule="evenodd"></path>
</g></svg>